#N canvas -8 -8 1366 685 10;
#X obj 438 -148 pddp/dsp;
#X obj 536 -137 tgl 40 0 empty empty empty 0 -6 0 8 -4034 -1 -1 0 1
;
#X floatatom 536 -38 10 0 0 0 - - -;
#X obj 524 200 osc~;
#X floatatom 603 -80 5 0 0 0 - - -;
#X obj 518 260 dac~;
#X obj 536 -55 counter 27;
#X obj 525 241 *~;
#X obj 559 280 vu 15 120 empty empty -1 -8 0 10 -66577 -1 1 0;
#X obj 556 258 pvu~;
#X obj 342 255 vsl 15 128 0 1 0 0 empty empty empty 0 -9 0 10 -232576
-1 -1 7600 1;
#X floatatom 535 411 5 0 0 0 - - -;
#X text 43 96 Do;
#X text 84 97 Do;
#X text 121 96 Sol;
#X text 164 96 Sol;
#X text 274 98 Sol;
#X text 197 96 La;
#X text 243 95 La;
#X text 314 97 Fa;
#X text 564 94 Sol;
#X text 353 95 Fa;
#X text 392 94 Mi;
#X text 421 94 Mi;
#X text 454 94 Re;
#X text 490 94 Re;
#X text 531 92 Do;
#X text 604 92 Sol;
#X text 819 90 Sol;
#X text 894 87 Fa;
#X text 930 87 Fa;
#X text 963 86 Mi;
#X text 1006 87 Mi;
#X text 1037 87 Re;
#X text 636 93 Fa;
#X text 671 93 Fa;
#X text 705 93 Mi;
#X text 739 92 Mi;
#X text 785 93 Re;
#X text 855 89 Sol;
#X floatatom 547 180 5 0 0 0 - - -;
#X obj 380 -15 select 0 1 2 3 4 5 6 7 8 9 10 11 12 13 14 15 16 17 18
19 20 21 22 23 24 25 26 27;
#X obj 38 114 s n;
#X obj 524 163 r n;
#X obj 78 116 s n;
#X obj 118 118 s n;
#X obj 158 117 s n;
#X obj 195 117 s n;
#X obj 235 116 s n;
#X obj 271 117 s n;
#X obj 311 115 s n;
#X obj 347 112 s n;
#X obj 382 113 s n;
#X obj 413 115 s n;
#X obj 451 118 s n;
#X obj 486 114 s n;
#X obj 527 116 s n;
#X obj 561 117 s n;
#X obj 596 115 s n;
#X obj 631 117 s n;
#X obj 668 119 s n;
#X obj 703 115 s n;
#X obj 738 113 s n;
#X obj 782 113 s n;
#X obj 817 111 s n;
#X obj 855 114 s n;
#X obj 890 112 s n;
#X obj 925 109 s n;
#X obj 960 106 s n;
#X obj 1000 113 s n;
#X obj 1034 110 s n;
#X obj 743 388 sendOSC;
#X obj 779 280 prepend send /no;
#X msg 840 242 0;
#X msg 795 243 1;
#X msg 769 351 connect localhost 12099;
#X obj 489 -82 s on;
#X obj 795 219 r on;
#X text 601 -160 OFF;
#X obj 651 -87 s off;
#X obj 840 218 r off;
#X floatatom 720 272 5 0 0 0 - - -;
#X obj 598 -136 tgl 40 0 empty empty empty 0 -6 0 8 -258113 -1 -1 0
1;
#X text 538 -160 ON;
#X obj 820 325 prepend send /tipo;
#X msg 897 300 \$1;
#X obj 898 264 r n;
#X obj 433 199 vline~;
#X msg 433 176 0 20 \, 1 20 20;
#X obj 433 222 *~;
#X obj 480 -50 s p;
#X obj 433 154 r p;
#X obj 536 -76 metro 1000;
#X msg 40 78 261;
#X msg 79 77 261;
#X msg 119 77 392;
#X msg 158 79 392;
#X msg 195 80 440;
#X msg 234 79 440;
#X msg 271 79 392;
#X msg 311 79 349;
#X msg 347 80 349;
#X msg 383 79 329;
#X msg 414 78 329;
#X msg 450 79 293;
#X msg 486 78 293;
#X msg 525 78 261;
#X msg 561 77 292;
#X msg 595 76 392;
#X msg 631 75 392;
#X msg 668 75 349;
#X msg 704 74 349;
#X msg 738 73 329;
#X msg 782 73 329;
#X msg 816 72 293;
#X msg 854 71 392;
#X msg 889 71 392;
#X msg 925 70 349;
#X msg 959 69 329;
#X msg 1001 69 329;
#X msg 1035 68 293;
#X connect 1 0 76 0;
#X connect 1 0 92 0;
#X connect 2 0 41 0;
#X connect 3 0 7 0;
#X connect 4 0 92 1;
#X connect 6 0 2 0;
#X connect 7 0 9 0;
#X connect 7 0 5 0;
#X connect 7 0 5 1;
#X connect 9 0 8 0;
#X connect 10 0 11 0;
#X connect 10 0 89 1;
#X connect 41 0 93 0;
#X connect 41 1 94 0;
#X connect 41 2 95 0;
#X connect 41 3 96 0;
#X connect 41 4 97 0;
#X connect 41 5 98 0;
#X connect 41 6 99 0;
#X connect 41 7 100 0;
#X connect 41 8 101 0;
#X connect 41 9 102 0;
#X connect 41 10 103 0;
#X connect 41 11 104 0;
#X connect 41 12 105 0;
#X connect 41 13 106 0;
#X connect 41 14 107 0;
#X connect 41 15 108 0;
#X connect 41 16 109 0;
#X connect 41 17 110 0;
#X connect 41 18 111 0;
#X connect 41 19 112 0;
#X connect 41 20 113 0;
#X connect 41 21 114 0;
#X connect 41 22 115 0;
#X connect 41 23 116 0;
#X connect 41 24 117 0;
#X connect 41 25 118 0;
#X connect 41 26 119 0;
#X connect 41 27 120 0;
#X connect 43 0 3 0;
#X connect 43 0 40 0;
#X connect 72 0 71 0;
#X connect 73 0 72 0;
#X connect 73 0 81 0;
#X connect 74 0 72 0;
#X connect 74 0 81 0;
#X connect 75 0 71 0;
#X connect 77 0 74 0;
#X connect 80 0 73 0;
#X connect 82 0 1 0;
#X connect 82 0 79 0;
#X connect 84 0 71 0;
#X connect 85 0 84 0;
#X connect 86 0 85 0;
#X connect 87 0 89 0;
#X connect 88 0 87 0;
#X connect 89 0 7 1;
#X connect 91 0 88 0;
#X connect 92 0 6 0;
#X connect 92 0 90 0;
#X connect 93 0 42 0;
#X connect 94 0 44 0;
#X connect 95 0 45 0;
#X connect 96 0 46 0;
#X connect 97 0 47 0;
#X connect 98 0 48 0;
#X connect 99 0 49 0;
#X connect 100 0 50 0;
#X connect 101 0 51 0;
#X connect 102 0 52 0;
#X connect 103 0 53 0;
#X connect 104 0 54 0;
#X connect 105 0 55 0;
#X connect 106 0 56 0;
#X connect 107 0 57 0;
#X connect 108 0 58 0;
#X connect 109 0 59 0;
#X connect 110 0 60 0;
#X connect 111 0 61 0;
#X connect 112 0 62 0;
#X connect 113 0 63 0;
#X connect 114 0 64 0;
#X connect 115 0 65 0;
#X connect 116 0 66 0;
#X connect 117 0 67 0;
#X connect 118 0 68 0;
#X connect 119 0 69 0;
#X connect 120 0 70 0;
